# xmcd
#
# Track frame offsets:
#	150
#	20064
#	39016
#	63311
#	79613
#	95598
#	109196
#	130546
#	151031
#	168308
#	193027
#	227592
#	322207
#	345611
#
# Disc length: 4790 seconds
#
# Revision: 0
# Processed by: cddbd v1.5.1PL2 Copyright (c) Steve Scherf et al.
# Submitted via: dBpowerAMP V4.0
#
DISCID=ad12b40e
DTITLE=CANARIO E AMIGOS AO VIVO - É UMA FESTA  
DYEAR=2006
DGENRE=FOLK
TTITLE0=ISTO É QUE É CANTAR (JOAO FERREIRA-AUGUSTO CANARIO)
TTITLE1=VIRA VELHO (POPULAR)
TTITLE2=VIRA DE NOSSA SENHORA DA AGONIA (AUGUSTO CANARIo)
TTITLE3=MENINA DA FESTA (AUGUSTO CANARIO)
TTITLE4=FEIRAS NOVAS (AUGUSTO CANARIO)
TTITLE5=OLHA O CANARINHO (AUGUSTO CANARIO)
TTITLE6=CANINHA VERDE DO CANARIO (AUGUSTO CANARIO)
TTITLE7=LENGALENGA DA MENINA QUE SABE LER (POPULAR-AUGUSTO CANARIO)
TTITLE8=RAPSÓDIA-COM AS PEQUENAS (POPULAR-AUGUSTO CANARIO)
TTITLE9=A MALTA JÁ ESTÁ CANSADA (AUGUSTO CANARIO)
TTITLE10=A CONCERTINA É PORREIRA (POPULAR-AUGUSTO CANARIO)
TTITLE11=DESGARRADA (POPULAR)
TTITLE12=Ó LINDA, EU VOU EMBORA (POPULAR)
TTITLE13=LUIZINHA (POPULAR)
EXTD=
EXTT0=
EXTT1=
EXTT2=
EXTT3=
EXTT4=
EXTT5=
EXTT6=
EXTT7=
EXTT8=
EXTT9=
EXTT10=
EXTT11=
EXTT12=
EXTT13=
PLAYORDER=
